<svg xmlns:xlink="http://www.w3.org/1999/xlink" xmlns="http://www.w3.org/2000/svg" width="200" height="38" fill="currentColor" viewBox="0 0 200 38"><path d="M88.668 10.0831C88.668 7.07784 91.2186 4.6416 94.3651 4.6416V27.6156H109.605V33.0856H88.668V10.0831Z" fill="#002654"></path><path d="M113.686 4.6416L113.686 9.11138H119.348V4.64161L113.686 4.6416Z" fill="#002654"></path><path d="M113.818 33.0856V12.0912H119.348L119.348 33.0856H113.818Z" fill="#002654"></path><path d="M124.222 33.0371V4.6416H129.91V14.2653C132.234 12.5249 135.298 11.4675 138.655 11.4675C146.689 11.4675 151.808 16.109 151.808 22.5253C151.808 28.9416 146.973 33.5832 138.655 33.5832C134.922 33.5832 131.891 32.5865 129.684 30.9358C129.192 32.1649 127.951 33.0371 126.497 33.0371H124.222ZM138.442 28.8051C143.748 28.8051 146.831 26.1692 146.831 22.5253C146.831 18.8815 143.566 16.2455 138.442 16.2455C133.808 16.2455 130.052 19.0571 130.052 22.5253C130.052 25.9936 133.136 28.8051 138.442 28.8051Z" fill="#002654"></path><path d="M168.562 11.4685C166.559 11.4685 164.74 11.7526 163.105 12.3229C161.473 12.8825 160.076 13.6669 158.914 14.6773C157.763 15.6773 156.87 16.8614 156.235 18.2285C155.61 19.5868 155.297 21.0618 155.297 22.651C155.297 24.3599 155.609 25.8952 156.235 27.2547C156.861 28.6138 157.771 29.7641 158.963 30.7043C160.155 31.6443 161.618 32.3622 163.348 32.8603L163.348 32.8605C165.088 33.3486 167.067 33.5916 169.283 33.5916C171.015 33.5916 172.708 33.4651 174.362 33.212C176.028 32.9687 177.692 32.5634 179.357 31.9962L179.444 31.9664V26.7915L179.242 26.9155C178.84 27.1615 178.305 27.4101 177.633 27.6605L177.632 27.6607C176.971 27.9106 176.226 28.141 175.397 28.3517C174.569 28.552 173.677 28.7174 172.721 28.8479C171.766 28.9681 170.792 29.0282 169.797 29.0282C168.392 29.0282 167.186 28.9228 166.178 28.7135C165.178 28.5037 164.338 28.2102 163.657 27.835C162.975 27.4596 162.436 27.0073 162.036 26.4795C161.677 25.9919 161.409 25.4589 161.234 24.8798H181.106V23.3619C181.106 21.4437 180.8 19.7435 180.185 18.2639C179.581 16.7862 178.722 15.5402 177.609 14.5282C176.506 13.5166 175.181 12.7564 173.635 12.2468C172.1 11.7274 170.408 11.4685 168.562 11.4685ZM165.401 16.614C166.275 16.3078 167.318 16.1528 168.533 16.1528C169.828 16.1528 170.9 16.2982 171.754 16.5844L171.756 16.5848C172.617 16.8634 173.306 17.2195 173.83 17.65C174.356 18.0827 174.734 18.5664 174.971 19.1007L174.971 19.102L174.972 19.1032C175.199 19.5878 175.341 20.0576 175.401 20.513H161.228C161.334 20.118 161.531 19.6879 161.822 19.2222C162.146 18.7028 162.6 18.2146 163.188 17.7585C163.783 17.3049 164.52 16.9229 165.401 16.614Z" fill="#002654"></path><path d="M198.883 16.7904V11.7238C197.158 11.6811 193.1 12.1018 190.587 14.4883V11.9977L185.057 11.9977V33.0856H187.609C189.489 33.0856 191.013 31.6142 191.013 29.7992V27.6082L191.145 22.7323C191.23 19.5759 193.825 17.0186 197.091 16.8712L198.883 16.7904Z" fill="#002654"></path><path d="M42.6696 0.277018C42.3549 0.15153 41.9951 0.191138 41.7181 0.381741C41.4412 0.572344 41.2866 0.88686 41.3092 1.21331C41.5394 4.52696 42.5139 7.40359 45.3622 9.5419C47.8632 11.4195 51.6937 12.6355 57.3981 13.2461C54.8549 15.6294 51.2632 17.4525 47.5189 17.5214C45.7422 17.5539 43.5542 17.1786 41.3598 16.7137C40.6636 16.5662 39.9607 16.4081 39.2749 16.2539C37.8623 15.9361 36.522 15.6346 35.4616 15.4758C35.0484 15.4134 34.6098 15.3259 34.1412 15.2324C32.8984 14.9845 31.4449 14.6945 29.6964 14.7204C28.8795 14.7321 27.7248 14.8239 26.5337 15.2596C26.5578 14.2244 26.2327 13.2401 25.501 12.4648C24.7482 11.6672 23.6678 11.1998 22.5492 11.1766L22.5461 11.1766L22.5429 11.1765C21.7223 11.1645 20.9377 11.4946 20.377 12.0153C19.7953 12.5555 19.4868 13.2675 19.4724 14.028L19.4724 14.0289L19.4724 14.0297C19.4558 15.0037 19.7787 15.934 20.4889 16.6868C21.0808 17.3143 21.9496 17.8307 22.9036 17.9849C21.9408 19.2704 21.5828 20.6363 21.554 21.8455C21.5518 21.9351 21.5501 22.025 21.5483 22.1152C21.5378 22.6551 21.5272 23.2044 21.4258 23.7543C21.3101 24.382 21.0908 24.9078 20.6985 25.2994C20.0983 25.8961 19.4529 26.1451 18.5463 26.0921C18.4324 26.0854 18.1039 25.9956 17.6509 25.7668C16.2482 25.0583 14.4416 24.8949 12.9489 25.7939L0.0930729 33.5372L1.37046 35.8003L1.3712 35.8016C1.59783 36.2002 1.90457 36.5516 2.27363 36.8355C2.64201 37.1188 3.06518 37.3294 3.5187 37.4549C3.84862 37.5473 4.19059 37.594 4.53428 37.5937L4.53641 37.5937L4.53854 37.5937C5.13839 37.5906 5.72787 37.4431 6.25301 37.1647L6.284 37.1483L13.3602 32.7322C13.9953 32.3359 14.8492 32.3388 15.5563 32.7559C17.7413 34.0446 20.0739 35.0133 22.4442 35.0072L22.4452 35.0072L22.4461 35.0072C24.4976 34.9981 26.7801 34.217 28.7002 33.3774C30.2918 32.6814 31.7323 31.8994 32.6844 31.3825C32.8923 31.2696 33.0771 31.1693 33.2349 31.0854L33.2355 31.085L33.2362 31.0847C36.6977 29.2374 40.0405 28.4246 43.9875 28.4145C48.0042 28.4042 52.2438 29.1774 57.0224 30.8707C57.2607 30.9614 57.4989 31.0524 57.7372 31.1434C58.1883 31.3156 58.8275 31.5596 59.5936 31.8522L61.3933 32.5394C62.5746 32.9905 63.8949 33.4946 65.2224 34.0015C69.3328 35.5709 73.5224 37.1701 73.8608 37.2968L74.6856 37.6054C75.0048 37.0139 75.3252 36.4354 75.5221 35.7937C75.6985 35.2189 75.8762 34.3503 75.6456 33.5059C75.1174 31.572 73.7141 30.2569 71.6675 29.557C71.3242 29.4509 70.9805 29.3464 70.6375 29.2394C69.0043 28.7298 67.3724 28.2061 65.7721 27.6069C64.9692 27.3062 64.3707 27.0557 64.0829 26.8842C62.5764 25.9864 62.3178 24.7452 62.5247 23.5536C62.7373 22.3292 63.6213 21.6172 64.6968 21.6172C66.9111 21.6348 68.7121 21.2788 70.0274 20.5769C71.3492 19.8715 72.21 18.901 72.7808 17.8932C73.9022 15.6593 73.1256 13.0768 71.7517 11.2738C70.7751 9.9921 68.7145 7.91075 65.1539 7.47764C64.3227 7.37147 63.0418 7.41732 62.1626 7.44992C61.1889 7.48602 61.2197 7.334 60.3008 7.02272L42.6696 0.277018ZM73.7404 33.9857C73.8293 34.3113 73.7808 34.7463 73.655 35.1843C71.4459 34.3426 65.8147 32.1923 61.878 30.6891L61.8656 30.6844C60.4826 30.1563 59.1067 29.6043 57.7141 29.0998C52.7558 27.3418 48.2791 26.5121 43.9822 26.5231C39.7106 26.5341 36.0393 27.4249 32.2794 29.4315C32.1051 29.5242 31.9078 29.6312 31.6902 29.7492C30.7344 30.2678 29.3878 30.9985 27.8839 31.6561C26.0182 32.4719 24.0534 33.1083 22.4385 33.1158C20.6112 33.1204 18.6571 32.365 16.5872 31.1442C15.2951 30.3822 13.619 30.315 12.2869 31.1463L5.27356 35.5231C5.04447 35.6391 4.78955 35.7006 4.53024 35.7023C4.37428 35.7023 4.21911 35.6809 4.06938 35.639L4.0674 35.6384L4.06541 35.6378C3.86125 35.5815 3.6708 35.4868 3.50508 35.3593C3.33971 35.2321 3.20224 35.0748 3.10057 34.8964L3.0999 34.8952L2.70549 34.1964L13.9956 27.3962C14.7513 26.941 15.7876 26.9627 16.7339 27.4407C17.253 27.7029 17.8844 27.9483 18.4266 27.98C19.9054 28.0665 21.1132 27.6099 22.1158 26.6128L22.1163 26.6123L22.1168 26.6118C22.8794 25.8512 23.2114 24.9191 23.3653 24.0839C23.4961 23.3746 23.5089 22.6609 23.5184 22.1278C23.5199 22.0436 23.5213 21.9638 23.5231 21.8894C23.5542 20.5844 24.1023 18.9557 26.1043 17.6003C27.3017 16.7903 28.7003 16.6262 29.7263 16.6115C31.2451 16.5891 32.367 16.8138 33.5353 17.0479C34.0536 17.1518 34.581 17.2575 35.1566 17.3443L35.1577 17.3445C36.1454 17.4924 37.3588 17.7656 38.7197 18.072C39.4226 18.2303 40.1648 18.3974 40.9355 18.5607C43.1349 19.0266 45.5245 19.4497 47.5566 19.4125C52.7014 19.3177 57.4238 16.416 60.216 13.0767C60.4443 12.8038 60.4968 12.4321 60.3526 12.1106C60.2084 11.789 59.8911 11.5703 59.5277 11.5421C52.8257 11.0204 48.8873 9.78758 46.5753 8.05186C44.7347 6.67003 43.833 4.8966 43.4531 2.63746L59.5768 8.75785C60.77 9.16053 60.8977 9.30045 62.1626 9.30046C63.0692 9.30046 64.0013 9.24125 64.9036 9.35368C67.7082 9.6939 69.3439 11.3172 70.1613 12.3896C71.6784 14.3798 71.6784 16.0068 71.0508 16.9889C70.63 17.732 70.0172 18.4185 69.0706 18.9236C68.1174 19.4323 66.7622 19.7912 64.8052 19.7756L64.8043 19.7756C62.473 19.7755 60.9523 21.4186 60.634 23.2895C60.3526 24.9438 60.9215 27.327 63.0649 28.5034C63.5251 28.7559 64.2646 29.0725 65.0566 29.369C66.6922 29.9815 68.3596 30.5174 70.0289 31.0382C70.3599 31.1415 70.6912 31.2438 71.0231 31.3444C72.5414 31.8679 73.4027 32.7495 73.7404 33.9857ZM21.7463 13.3749C21.9912 13.1474 22.3143 13.0485 22.6489 13.0741C23.1835 13.117 23.6812 13.3532 24.0415 13.7349C24.4295 14.1461 24.5633 14.6508 24.5648 15.1922C24.5663 15.7145 24.1265 16.139 23.5826 16.1404C22.9554 16.142 22.3684 15.862 21.9487 15.417C21.6029 15.0505 21.4328 14.5976 21.4418 14.0616C21.4472 13.7855 21.5518 13.5555 21.7463 13.3749Z" fill="#002654"></path></svg>